<svg width="64" height="64" viewBox="0 0 64 64" fill="none" xmlns="http://www.w3.org/2000/svg">
  <path fill-rule="evenodd" clip-rule="evenodd"
    d="M13.3333 56C11.9188 56 10.5623 55.4381 9.5621 54.4379C8.5619 53.4377 8 52.0812 8 50.6667V13.3333C8 11.9188 8.5619 10.5623 9.5621 9.5621C10.5623 8.5619 11.9188 8 13.3333 8H50.6667C52.0812 8 53.4377 8.5619 54.4379 9.5621C55.4381 10.5623 56 11.9188 56 13.3333V50.6667C56 52.0812 55.4381 53.4377 54.4379 54.4379C53.4377 55.4381 52.0812 56 50.6667 56H13.3333ZM45.3333 13.3333V18.6667H50.6667V13.3333H45.3333ZM32 45.3333C35.5362 45.3333 38.9276 43.9286 41.4281 41.4281C43.9286 38.9276 45.3333 35.5362 45.3333 32C45.3333 28.4638 43.9286 25.0724 41.4281 22.5719C38.9276 20.0714 35.5362 18.6667 32 18.6667C28.4638 18.6667 25.0724 20.0714 22.5719 22.5719C20.0714 25.0724 18.6667 28.4638 18.6667 32C18.6667 35.5362 20.0714 38.9276 22.5719 41.4281C25.0724 43.9286 28.4638 45.3333 32 45.3333ZM32 40C34.1217 40 36.1566 39.1571 37.6569 37.6569C39.1571 36.1566 40 34.1217 40 32C40 29.8783 39.1571 27.8434 37.6569 26.3431C36.1566 24.8429 34.1217 24 32 24C29.8783 24 27.8434 24.8429 26.3431 26.3431C24.8429 27.8434 24 29.8783 24 32C24 34.1217 24.8429 36.1566 26.3431 37.6569C27.8434 39.1571 29.8783 40 32 40V40Z"
    fill="black" />
</svg>